HIERARCHY
ROOT Hips
{
	OFFSET 0.000000 0.000000 0.000000
	CHANNELS 6 Xposition Yposition Zposition Zrotation Yrotation Xrotation 
	JOINT LHipJoint
	{
		OFFSET 0.000000 0.000000 0.000000
		CHANNELS 3 Zrotation Yrotation Xrotation
		JOINT LeftUpLeg
		{
			OFFSET 1.363060 -1.794630 0.839290
			CHANNELS 3 Zrotation Yrotation Xrotation
			JOINT LeftLeg
			{
				OFFSET 2.448110 -6.726130 0.000000
				CHANNELS 3 Zrotation Yrotation Xrotation
				JOINT LeftFoot
				{
					OFFSET 2.562200 -7.039590 0.000000
					CHANNELS 3 Zrotation Yrotation Xrotation
					JOINT LeftToeBase
					{
						OFFSET 0.157640 -0.433110 2.322550
						CHANNELS 3 Zrotation Yrotation Xrotation
						End Site
						{
							OFFSET 0.000000 0.000000 0.000000
						}
					}
				}
			}
		}
	}
	JOINT RHipJoint
	{
		OFFSET 0.000000 0.000000 0.000000
		CHANNELS 3 Zrotation Yrotation Xrotation
		JOINT RightUpLeg
		{
			OFFSET -1.305520 -1.794630 0.839290
			CHANNELS 3 Zrotation Yrotation Xrotation
			JOINT RightLeg
			{
				OFFSET -2.542530 -6.985550 0.000000
				CHANNELS 3 Zrotation Yrotation Xrotation
				JOINT RightFoot
				{
					OFFSET -2.568260 -7.056230 0.000000
					CHANNELS 3 Zrotation Yrotation Xrotation
					JOINT RightToeBase
					{
						OFFSET -0.164730 -0.452590 2.363150
						CHANNELS 3 Zrotation Yrotation Xrotation
						End Site
						{
							OFFSET 0.000000 0.000000 0.000000
						}
					}
				}
			}
		}
	}
	JOINT LowerBack
	{
		OFFSET 0.000000 0.000000 0.000000
		CHANNELS 3 Zrotation Yrotation Xrotation
		JOINT Spine
		{
			OFFSET 0.028270 2.035590 -0.193380
			CHANNELS 3 Zrotation Yrotation Xrotation
			JOINT Spine1
			{
				OFFSET 0.056720 2.048850 -0.042750
				CHANNELS 3 Zrotation Yrotation Xrotation
				JOINT Neck
				{
					OFFSET 0.000000 0.000000 0.000000
					CHANNELS 3 Zrotation Yrotation Xrotation
					JOINT Neck1
					{
						OFFSET -0.054170 1.746240 0.172020
						CHANNELS 3 Zrotation Yrotation Xrotation
						JOINT Head
						{
							OFFSET 0.104070 1.761360 -0.123970
							CHANNELS 3 Zrotation Yrotation Xrotation
							End Site
							{
								OFFSET 0.000000 0.000000 0.000000
							}
						}
					}
				}
				JOINT LeftShoulder
				{
					OFFSET 0.000000 0.000000 0.000000
					CHANNELS 3 Zrotation Yrotation Xrotation
					JOINT LeftArm
					{
						OFFSET 3.362410 1.200890 -0.311210
						CHANNELS 3 Zrotation Yrotation Xrotation
						JOINT LeftForeArm
						{
							OFFSET 4.983000 -0.000000 -0.000000
							CHANNELS 3 Zrotation Yrotation Xrotation
							JOINT LeftHand
							{
								OFFSET 3.483560 -0.000000 -0.000000
								CHANNELS 3 Zrotation Yrotation Xrotation
								JOINT LeftFingerBase
								{
									OFFSET 0.000000 0.000000 0.000000
									CHANNELS 3 Zrotation Yrotation Xrotation
									JOINT LeftHandIndex1
									{
										OFFSET 0.715260 -0.000000 -0.000000
										CHANNELS 3 Zrotation Yrotation Xrotation
										End Site
										{
											OFFSET 0.000000 0.000000 0.000000
										}
									}
								}
								JOINT LThumb
								{
									OFFSET 0.000000 0.000000 0.000000
									CHANNELS 3 Zrotation Yrotation Xrotation
									End Site
									{
										OFFSET 0.000000 0.000000 0.000000
									}
								}
							}
						}
					}
				}
				JOINT RightShoulder
				{
					OFFSET 0.000000 0.000000 0.000000
					CHANNELS 3 Zrotation Yrotation Xrotation
					JOINT RightArm
					{
						OFFSET -3.136600 1.374050 -0.404650
						CHANNELS 3 Zrotation Yrotation Xrotation
						JOINT RightForeArm
						{
							OFFSET -5.241900 -0.000000 -0.000000
							CHANNELS 3 Zrotation Yrotation Xrotation
							JOINT RightHand
							{
								OFFSET -3.444170 -0.000000 -0.000000
								CHANNELS 3 Zrotation Yrotation Xrotation
								JOINT RightFingerBase
								{
									OFFSET 0.000000 0.000000 0.000000
									CHANNELS 3 Zrotation Yrotation Xrotation
									JOINT RightHandIndex1
									{
										OFFSET -0.622530 -0.000000 -0.000000
										CHANNELS 3 Zrotation Yrotation Xrotation
										End Site
										{
											OFFSET 0.000000 0.000000 0.000000
										}
									}
								}
								JOINT RThumb
								{
									OFFSET 0.000000 0.000000 0.000000
									CHANNELS 3 Zrotation Yrotation Xrotation
									End Site
									{
										OFFSET 0.000000 0.000000 0.000000
									}
								}
							}
						}
					}
				}
			}
		}
	}
}
MOTION
Frames: 6
Frame Time: 0.008333
0.959682 18.338967 -3.461062 6.818795 52.266170 19.925992 4.707965 2.579871 -0.837245 -32.200967 19.717299 -27.531496 3.661310 13.285638 38.835118 -3.459832 13.893771 10.354854 0.748300 -5.525500 -15.413700 -8.568610 -3.676454 -0.920913 25.972859 -5.138797 -37.601914 -6.652949 -16.992593 51.261870 3.309305 -17.336078 2.837848 -4.382700 12.653000 -38.083000 -4.187812 1.520487 -0.425801 -1.455482 2.265501 -6.780618 -4.597425 0.974016 -13.879013 -6.082364 12.485207 -11.947756 8.568842 17.624359 8.463386 4.709100 8.905300 2.382000 -0.525103 -11.940137 1.558257 -86.478317 -6.048312 60.886134 143.322504 -34.960899 -105.799921 0.524284 0.804471 -5.898601 7.773815 19.605864 2.331000 -7.125000 0.000000 0.000000 -20.177400 47.922400 -1.512800 -0.508266 11.888565 3.886810 92.356707 -41.069205 -13.714938 -81.909427 56.838981 -52.753244 -2.242229 0.395572 -24.410313 4.755148 57.297669 5.543700 7.125000 0.000000 0.000000 21.958600 22.746700 30.415500 
0.824301 18.267550 -3.444932 4.819862 43.359669 17.458823 4.899241 2.755979 -0.793193 -33.134819 23.346296 -29.823329 4.519013 14.025673 41.524761 -4.453799 16.235224 9.791972 0.612400 -5.008600 -13.933200 -8.440555 -3.683767 -0.843730 28.152765 -6.976718 -38.687612 -6.693713 -16.913011 51.245820 2.337866 -14.270655 5.712108 -4.799000 13.153800 -39.947000 -3.897417 0.833657 -0.932631 -1.281413 1.227465 -6.989981 -4.123353 0.495519 -14.238090 -6.596591 10.981003 -12.270294 9.298052 15.696614 8.623212 5.205300 7.958200 2.584500 -0.459277 -11.990623 1.471683 -87.218378 -3.779632 61.028378 142.563056 -35.810367 -104.978145 0.483830 0.918491 -9.024611 9.964219 21.449029 3.320000 -7.125000 0.000000 0.000000 -18.942900 49.904500 -2.365500 -0.534223 11.952092 3.694246 92.316211 -39.726097 -11.156683 -85.222661 56.667905 -55.404115 -2.222983 0.384950 -25.497519 7.754000 57.540239 8.016300 7.125000 0.000000 0.000000 23.075900 22.673800 32.151500 
0.672678 18.307374 -3.398544 3.163551 34.840075 15.564508 5.069499 2.867008 -0.799954 -32.775280 24.537530 -31.528303 5.519379 14.870538 44.436608 -5.980143 20.102684 9.756320 0.226600 -3.063900 -8.456600 -8.444273 -3.717363 -0.729342 30.319514 -7.272568 -38.800552 -6.211522 -16.443009 49.427607 1.565804 -11.435572 7.145871 -4.248600 12.484000 -37.466500 -3.507261 0.004899 -1.335130 -1.009076 -0.025195 -7.163678 -3.414244 -0.057906 -14.463289 -7.267170 8.972167 -12.814323 10.074327 13.104799 8.488652 5.760100 6.695100 2.801700 -0.354190 -12.057126 1.413189 -87.968634 -1.800408 61.148566 141.522482 -36.766064 -103.953410 0.299196 0.948227 -10.924986 8.171135 21.911828 2.780400 -7.125000 0.000000 0.000000 -20.664600 50.038500 -2.667000 -0.603565 12.032241 3.483807 92.967127 -37.631441 -8.922044 -88.210114 56.475922 -57.695404 -2.163723 0.415672 -25.399967 11.588802 58.501663 11.275900 7.125000 0.000000 0.000000 24.515100 23.285500 34.566000 
0.514604 18.387023 -3.356940 1.226451 26.782474 13.698965 5.228461 2.956994 -0.820775 -30.917752 24.168703 -32.523695 6.771712 15.797914 47.818068 -7.447844 24.362289 10.801195 0.003800 0.396900 1.090600 -8.572782 -3.802285 -0.651676 33.071436 -6.351974 -37.277548 -5.578172 -15.829163 47.079466 1.353680 -10.246334 6.679514 -2.094300 9.059700 -25.982400 -2.257492 -0.979614 -1.546960 -0.635088 -1.489756 -7.324010 -2.638609 -0.762424 -14.692793 -8.542261 6.876014 -13.098733 10.880755 10.393653 8.681435 6.458900 5.332400 3.134900 -0.229991 -12.151586 1.348713 -89.265727 0.716976 60.819869 140.194588 -37.961341 -102.629636 0.172077 1.004522 -12.230647 8.340940 22.849207 2.988300 -7.125000 0.000000 0.000000 -20.835300 50.885300 -3.138200 -0.554440 11.977860 3.289654 91.579130 -36.837603 -3.383989 -92.107731 55.909742 -60.858312 -2.326742 0.285750 -26.947035 7.433423 57.320542 7.818300 7.125000 0.000000 0.000000 22.980000 22.467900 31.962700 
0.363538 18.448651 -3.319229 -0.672720 18.733472 12.101071 5.425191 3.049577 -0.890705 -28.194637 23.129975 -32.917755 8.328771 16.732309 51.545061 -8.399870 28.628015 14.110973 0.714600 5.402400 15.060000 -8.862600 -3.887212 -0.521104 35.323258 -2.265124 -34.063022 -5.051433 -15.332431 45.065659 1.416398 -11.209675 8.568252 -1.325900 7.292100 -20.583700 -0.509178 -1.995736 -1.621674 -0.231645 -2.973697 -7.391149 -2.200520 -1.546929 -14.819381 -8.815058 4.116868 -12.506948 10.547785 6.547509 7.920104 6.354200 3.396700 3.223700 -0.065073 -12.242158 1.386793 -90.074393 3.219109 59.988581 138.770736 -39.089880 -101.269352 -0.022707 0.939068 -11.967848 4.939352 21.858801 1.707700 -7.125000 0.000000 0.000000 -23.311400 49.488300 -2.712300 -0.516580 11.958422 3.118769 91.099938 -34.825393 1.323765 -94.676507 55.513402 -62.668097 -2.447322 0.219857 -26.451415 5.010223 56.736325 5.900000 7.125000 0.000000 0.000000 22.086800 22.153500 30.508500 
0.204796 18.394143 -3.307326 -2.264780 10.653261 11.127283 5.593148 3.083542 -1.011233 -24.987528 22.507233 -33.843233 10.165480 17.619943 55.559769 -7.554246 31.138156 21.526442 2.782300 10.333900 30.065000 -9.157452 -3.915337 -0.398982 37.492021 0.880359 -31.703488 -4.757587 -15.024131 44.014369 0.900717 -9.245400 9.807771 -1.206700 6.969100 -19.623800 0.616755 -2.774929 -2.106327 0.259067 -4.170811 -7.217424 -0.914243 -2.035432 -13.763217 -10.618826 1.439035 -13.002106 10.853483 3.012143 7.753116 6.874600 1.606200 3.657900 0.121027 -12.313269 1.425277 -91.138425 4.377651 59.606937 137.213660 -40.239043 -99.729822 -0.063799 1.029348 -11.207342 6.815676 23.102641 2.521400 -7.125000 0.000000 0.000000 -22.116300 50.833900 -3.318600 -0.506199 11.742737 2.964840 89.331519 -32.869659 6.201623 -98.027081 54.862538 -65.564867 -2.303815 0.369390 -27.802160 12.450762 56.780585 11.831100 7.125000 0.000000 0.000000 24.788800 21.529700 34.679100 
